<?xml version="1.0" encoding="utf-8"?>
<!-- Generator: Adobe Illustrator 22.0.1, SVG Export Plug-In . SVG Version: 6.00 Build 0)  -->
<svg version="1.1" id="Layer_1" xmlns="http://www.w3.org/2000/svg" xmlns:xlink="http://www.w3.org/1999/xlink" x="0px" y="0px"
	 viewBox="0 0 200 25" style="enable-background:new 0 0 200 25;" xml:space="preserve" width="250" height="45">
<style type="text/css">
	.st0{display:none;fill-rule:evenodd;clip-rule:evenodd;fill:#F598A9;}
	.st1{display:none;fill-rule:evenodd;clip-rule:evenodd;fill:#FDF38C;}
	.st2{display:none;fill-rule:evenodd;clip-rule:evenodd;fill:#42B649;}
	.st3{display:none;fill-rule:evenodd;clip-rule:evenodd;fill:#75D1F7;}
	.st4{fill:#9B9B9B;}
	.st5{fill-rule:evenodd;clip-rule:evenodd;fill:#FFFFFF;}
	.st6{fill-rule:evenodd;clip-rule:evenodd;fill:#9B9B9B;}
	.st7{clip-path:url(#SVGID_2_);}
	.st8{clip-path:url(#SVGID_4_);fill:#9B9B9B;}
	.st9{clip-path:url(#SVGID_6_);}
	.st10{clip-path:url(#SVGID_8_);fill:#9B9B9B;}
	.st11{clip-path:url(#SVGID_10_);}
	.st12{clip-path:url(#SVGID_12_);fill:#FFFFFF;}
	.st13{clip-path:url(#SVGID_14_);}
	.st14{clip-path:url(#SVGID_16_);fill:#FFFFFF;}
	.st15{clip-path:url(#SVGID_18_);}
	.st16{clip-path:url(#SVGID_20_);fill:#9B9B9B;}
	.st17{clip-path:url(#SVGID_22_);}
	.st18{clip-path:url(#SVGID_24_);fill:#9B9B9B;}
	.st19{clip-path:url(#SVGID_26_);}
	.st20{clip-path:url(#SVGID_28_);fill:#9B9B9B;}
	.st21{clip-path:url(#SVGID_30_);}
	.st22{clip-path:url(#SVGID_32_);fill:#9B9B9B;}
	.st23{clip-path:url(#SVGID_34_);}
	.st24{clip-path:url(#SVGID_36_);fill:#9B9B9B;}
	.st25{clip-path:url(#SVGID_38_);}
	.st26{clip-path:url(#SVGID_40_);fill:#FFFFFF;}
	.st27{clip-path:url(#SVGID_42_);}
	.st28{clip-path:url(#SVGID_44_);fill:#FFFFFF;}
	.st29{clip-path:url(#SVGID_46_);}
	.st30{clip-path:url(#SVGID_48_);fill:#FFFFFF;}
	.st31{clip-path:url(#SVGID_50_);}
	.st32{clip-path:url(#SVGID_52_);fill:#FFFFFF;}
	.st33{clip-path:url(#SVGID_54_);}
	.st34{clip-path:url(#SVGID_56_);fill:#FFFFFF;}
	.st35{clip-path:url(#SVGID_58_);}
	.st36{clip-path:url(#SVGID_60_);fill:#FFFFFF;}
	.st37{fill-rule:evenodd;clip-rule:evenodd;fill:#BABABA;}
	.st38{fill-rule:evenodd;clip-rule:evenodd;fill:#CECECD;}
	.st39{display:none;fill-rule:evenodd;clip-rule:evenodd;fill:#F5865E;}
	.st40{display:none;fill-rule:evenodd;clip-rule:evenodd;fill:#E0EAA6;}
	.st41{display:none;fill-rule:evenodd;clip-rule:evenodd;fill:#9CDAEC;}
	.st42{display:none;fill-rule:evenodd;clip-rule:evenodd;fill:#71C59D;}
	.st43{display:none;fill-rule:evenodd;clip-rule:evenodd;fill:#564FA1;}
	.st44{display:none;fill-rule:evenodd;clip-rule:evenodd;fill:#ED3594;}
	.st45{display:none;fill-rule:evenodd;clip-rule:evenodd;fill:#FAEF5D;}
	.st46{fill-rule:evenodd;clip-rule:evenodd;fill:#C1E3D0;}
	.st47{fill:#C1E3D0;}
	.st48{fill:#D9C68D;}
	.st49{fill:#EBC7BC;}
	.st50{fill-rule:evenodd;clip-rule:evenodd;fill:#EBC7BC;}
	.st51{opacity:0.7;}
	.st52{fill:#FFFFFF;}
</style>
<g>
	<rect class="st0" width="50" height="25"/>
	<rect x="50" class="st1" width="50" height="25"/>
	<rect x="100" class="st2" width="50" height="25"/>
	<rect x="150" class="st3" width="50" height="25"/>
	<g>
		<path class="st4" d="M138.95,4.52v15.95c0,0.91-0.73,1.65-1.65,1.65h-24.6c-0.92,0-1.65-0.74-1.65-1.65V4.52
			c0-0.91,0.73-1.64,1.65-1.64h24.6C138.22,2.88,138.95,3.61,138.95,4.52z"/>
		<g>
			<g>
				<path class="st5" d="M133.568,8.53v0.455l-0.227-0.455h-1.78v0.455l-0.229-0.455h-2.425c-0.417,0-0.758,0.075-1.06,0.227V8.53
					h-1.705v0.038v0.19c-0.19-0.152-0.417-0.227-0.72-0.227h-6.102L118.9,9.478l-0.416-0.947h-1.365h-0.568v0.455l-0.19-0.455
					h-0.038h-1.63l-0.758,1.78l-0.872,1.933l-0.017,0.038h0.017h1.933h0.025l0.014-0.038l0.228-0.568h0.491l0.227,0.606h2.199
					v-0.038v-0.416l0.188,0.453h1.1l0.19-0.453v0.416v0.038h0.871h4.359h0.039v-0.985h0.075c0.075,0,0.075,0,0.075,0.114v0.833
					h2.729v-0.226c0.227,0.113,0.568,0.226,1.023,0.226h1.137l0.227-0.606h0.53l0.227,0.606h2.198v-0.378v-0.19l0.342,0.568h0.075
					h0.038h1.669V8.53H133.568z"/>
				<polygon class="st6" points="120.721,11.713 120.342,11.713 120.114,11.713 120.114,11.486 120.114,9.629 120.076,9.715
					120.076,9.714 119.195,11.713 119.167,11.713 118.963,11.713 118.636,11.713 117.727,9.629 117.727,11.713 116.439,11.713
					116.172,11.145 114.883,11.145 114.618,11.713 113.952,11.713 115.073,9.061 116.022,9.061 117.082,11.6 117.082,9.061
					117.309,9.061 118.085,9.061 118.103,9.099 118.105,9.099 118.583,10.139 118.927,10.919 118.939,10.879 119.698,9.061
					120.721,9.061 				"/>
				<polygon class="st6" points="123.336,9.629 121.857,9.629 121.857,10.123 123.298,10.123 123.298,10.651 121.857,10.651
					121.857,11.183 123.336,11.183 123.336,11.751 121.214,11.751 121.214,9.061 123.336,9.061 				"/>
				<path class="st6" d="M126.04,10.607c0,0,0.001,0.001,0.003,0.001c0.015,0.015,0.027,0.031,0.036,0.045
					c0.074,0.096,0.133,0.237,0.135,0.445v0.01c0,0.003,0.001,0.004,0.001,0.007c0,0-0.001,0.001-0.001,0.003
					c0.001,0.021,0.001,0.042,0.001,0.066v0.53h-0.568v-0.303c0-0.152,0-0.38-0.113-0.532c-0.036-0.035-0.073-0.059-0.112-0.075
					c-0.057-0.038-0.166-0.038-0.343-0.038h-0.684v0.947h-0.643V9.061h1.441c0.34,0,0.568,0,0.758,0.114
					c0.184,0.11,0.296,0.296,0.301,0.589c-0.01,0.403-0.268,0.625-0.453,0.698C125.8,10.462,125.925,10.488,126.04,10.607
					L126.04,10.607z"/>
			</g>
			<g>
				<defs>
					<rect id="SVGID_1_" x="126.671" y="9.061" width="0.645" height="2.653"/>
				</defs>
				<use xlink:href="#SVGID_1_"  style="overflow:visible;fill-rule:evenodd;clip-rule:evenodd;fill:#9B9B9B;"/>
				<clipPath id="SVGID_2_">
					<use xlink:href="#SVGID_1_"  style="overflow:visible;"/>
				</clipPath>
				<g class="st7">
					<defs>
						<rect id="SVGID_3_" x="-1093.001" y="-578.311" width="1440" height="633"/>
					</defs>
					<use xlink:href="#SVGID_3_"  style="overflow:visible;fill:#9B9B9B;"/>
					<clipPath id="SVGID_4_">
						<use xlink:href="#SVGID_3_"  style="overflow:visible;"/>
					</clipPath>
					<rect x="121.671" y="4.061" class="st8" width="10.645" height="12.653"/>
				</g>
			</g>
			<g>
				<defs>
					<path id="SVGID_5_" d="M134.706,11.713h-0.834l-1.212-2.008v1.667l-0.004-0.004v0.346h-0.641v-0.001h-0.645l-0.227-0.568
						h-1.326l-0.227,0.606h-0.721c-0.301,0-0.681-0.075-0.908-0.303c-0.227-0.227-0.34-0.53-0.34-1.023
						c0-0.38,0.075-0.759,0.34-1.062c0.19-0.227,0.53-0.303,0.948-0.303h0.606v0.568h-0.606c-0.227,0-0.34,0.038-0.493,0.152
						c-0.114,0.113-0.19,0.34-0.19,0.607c0,0.303,0.039,0.491,0.19,0.643c0.113,0.114,0.265,0.152,0.454,0.152h0.266l0.872-2.085
						h0.378h0.569l1.06,2.54V11.51v-0.858v-0.074V9.099h0.947l1.1,1.857V9.099h0.645V11.713z"/>
				</defs>
				<use xlink:href="#SVGID_5_"  style="overflow:visible;fill-rule:evenodd;clip-rule:evenodd;fill:#9B9B9B;"/>
				<clipPath id="SVGID_6_">
					<use xlink:href="#SVGID_5_"  style="overflow:visible;"/>
				</clipPath>
				<g class="st9">
					<defs>
						<rect id="SVGID_7_" x="-1093.001" y="-578.311" width="1440" height="633"/>
					</defs>
					<use xlink:href="#SVGID_7_"  style="overflow:visible;fill:#9B9B9B;"/>
					<clipPath id="SVGID_8_">
						<use xlink:href="#SVGID_7_"  style="overflow:visible;"/>
					</clipPath>
					<rect x="122.619" y="4.061" class="st10" width="17.087" height="12.69"/>
				</g>
			</g>
			<g>
				<defs>
					<path id="SVGID_9_" d="M125.499,10.166c0.011-0.013,0.021-0.025,0.029-0.04c0.035-0.054,0.074-0.152,0.053-0.285
						c0-0.013-0.003-0.025-0.006-0.036c0-0.003,0-0.006-0.001-0.008c-0.02-0.066-0.067-0.105-0.116-0.128
						c-0.075-0.039-0.19-0.039-0.303-0.039h-0.759v0.607h0.759c0.113,0,0.228,0,0.303-0.038c0.011-0.006,0.021-0.013,0.031-0.022
						L125.499,10.166z"/>
				</defs>
				<use xlink:href="#SVGID_9_"  style="overflow:visible;fill-rule:evenodd;clip-rule:evenodd;fill:#FFFFFF;"/>
				<clipPath id="SVGID_10_">
					<use xlink:href="#SVGID_9_"  style="overflow:visible;"/>
				</clipPath>
				<g class="st11">
					<defs>
						<rect id="SVGID_11_" x="-1093.001" y="-578.311" width="1440" height="633"/>
					</defs>
					<use xlink:href="#SVGID_11_"  style="overflow:visible;fill:#FFFFFF;"/>
					<clipPath id="SVGID_12_">
						<use xlink:href="#SVGID_11_"  style="overflow:visible;"/>
					</clipPath>
					<rect x="119.396" y="4.628" class="st12" width="11.191" height="10.607"/>
				</g>
			</g>
			<g>
				<defs>
					<path id="SVGID_13_" d="M136.942,15.504c0-0.265-0.077-0.532-0.19-0.721v-1.704h-0.003v-0.114h-1.824
						c-0.236,0-0.523,0.227-0.523,0.227v-0.227h-1.743c-0.267,0-0.607,0.075-0.758,0.227v-0.227h-3.109v0.114v0.113
						c-0.228-0.19-0.645-0.227-0.833-0.227h-2.047v0.114v0.113c-0.19-0.19-0.645-0.227-0.872-0.227h-2.273l-0.532,0.568
						l-0.494-0.568h-0.158h-0.257h-2.996v0.114v0.299v3.414h3.336l0.547-0.548l0.476,0.548h0.038h1.921h0.088h0.038h0.038v-0.38
						v-0.491h0.19c0.265,0,0.607,0,0.871-0.114v0.947v0.075h1.706v-0.075v-0.91h0.075c0.115,0,0.115,0,0.115,0.113v0.797v0.075
						h5.153c0.342,0,0.682-0.075,0.872-0.227v0.152v0.075h1.63c0.34,0,0.682-0.038,0.91-0.19c0.349-0.209,0.569-0.58,0.601-1.021
						c0.001-0.014,0.004-0.027,0.006-0.039l-0.003-0.001C136.941,15.553,136.942,15.529,136.942,15.504"/>
				</defs>
				<clipPath id="SVGID_14_">
					<use xlink:href="#SVGID_13_"  style="overflow:visible;"/>
				</clipPath>
				<g class="st13">
					<defs>
						<rect id="SVGID_15_" x="-1093.001" y="-578.311" width="1440" height="633"/>
					</defs>
					<clipPath id="SVGID_16_">
						<use xlink:href="#SVGID_15_"  style="overflow:visible;"/>
					</clipPath>
					<rect x="113.332" y="7.965" class="st14" width="28.61" height="13.865"/>
				</g>
			</g>
			<g>
				<defs>
					<path id="SVGID_17_" d="M125.004,15.277h-0.759v0.113v0.227v0.227v0.417h-1.246l-0.724-0.834l-0.003,0.003l-0.035-0.04
						l-0.835,0.872h-2.425v-2.653h2.463l0.674,0.737l0.141,0.153l0.02-0.018l0.795-0.872h2.009c0.389,0,0.826,0.095,0.992,0.493
						c0.02,0.078,0.031,0.165,0.031,0.265C126.102,15.125,125.572,15.277,125.004,15.277"/>
				</defs>
				<clipPath id="SVGID_18_">
					<use xlink:href="#SVGID_17_"  style="overflow:visible;"/>
				</clipPath>
				<g class="st15">
					<defs>
						<rect id="SVGID_19_" x="-1093.001" y="-578.311" width="1440" height="633"/>
					</defs>
					<clipPath id="SVGID_20_">
						<use xlink:href="#SVGID_19_"  style="overflow:visible;"/>
					</clipPath>
					<rect x="113.977" y="8.609" class="st16" width="17.125" height="12.653"/>
				</g>
			</g>
			<g>
				<defs>
					<path id="SVGID_21_" d="M128.793,15.239c0.075,0.113,0.113,0.265,0.113,0.494v0.529h-0.643v-0.34c0-0.152,0-0.417-0.114-0.532
						c-0.077-0.113-0.228-0.113-0.455-0.113h-0.681v0.985h-0.645v-2.69h1.44c0.303,0,0.568,0,0.758,0.113
						c0.19,0.114,0.34,0.304,0.34,0.607c0,0.416-0.264,0.643-0.454,0.72C128.643,15.087,128.756,15.162,128.793,15.239"/>
				</defs>
				<clipPath id="SVGID_22_">
					<use xlink:href="#SVGID_21_"  style="overflow:visible;"/>
				</clipPath>
				<g class="st17">
					<defs>
						<rect id="SVGID_23_" x="-1093.001" y="-578.311" width="1440" height="633"/>
					</defs>
					<clipPath id="SVGID_24_">
						<use xlink:href="#SVGID_23_"  style="overflow:visible;"/>
					</clipPath>
					<rect x="121.368" y="8.571" class="st18" width="12.538" height="12.69"/>
				</g>
			</g>
			<g>
				<defs>
					<polygon id="SVGID_25_" points="131.408,14.139 129.929,14.139 129.929,14.633 131.371,14.633 131.371,15.162 129.929,15.162
						129.929,15.693 131.408,15.693 131.408,16.261 129.286,16.261 129.286,13.571 131.408,13.571 					"/>
				</defs>
				<clipPath id="SVGID_26_">
					<use xlink:href="#SVGID_25_"  style="overflow:visible;"/>
				</clipPath>
				<g class="st19">
					<defs>
						<rect id="SVGID_27_" x="-1093.001" y="-578.311" width="1440" height="633"/>
					</defs>
					<clipPath id="SVGID_28_">
						<use xlink:href="#SVGID_27_"  style="overflow:visible;"/>
					</clipPath>
					<rect x="124.286" y="8.571" class="st20" width="12.122" height="12.69"/>
				</g>
			</g>
			<g>
				<defs>
					<path id="SVGID_29_" d="M133,16.262h-1.213v-0.568H133c0.113,0,0.19,0,0.265-0.077c0.039-0.038,0.075-0.113,0.075-0.19
						c0-0.075-0.036-0.151-0.075-0.188c-0.038-0.039-0.114-0.077-0.227-0.077c-0.606-0.038-1.327,0-1.327-0.834
						c0-0.378,0.227-0.795,0.911-0.795h1.25v0.645h-1.175c-0.115,0-0.19,0-0.265,0.038c-0.077,0.039-0.077,0.113-0.077,0.19
						c0,0.113,0.077,0.151,0.152,0.19c0.075,0.038,0.152,0.038,0.227,0.038h0.342c0.34,0,0.568,0.075,0.719,0.227
						c0.114,0.113,0.19,0.303,0.19,0.568C133.985,15.997,133.645,16.262,133,16.262"/>
				</defs>
				<clipPath id="SVGID_30_">
					<use xlink:href="#SVGID_29_"  style="overflow:visible;"/>
				</clipPath>
				<g class="st21">
					<defs>
						<rect id="SVGID_31_" x="-1093.001" y="-578.311" width="1440" height="633"/>
					</defs>
					<clipPath id="SVGID_32_">
						<use xlink:href="#SVGID_31_"  style="overflow:visible;"/>
					</clipPath>
					<rect x="126.711" y="8.533" class="st22" width="12.274" height="12.729"/>
				</g>
			</g>
			<g>
				<defs>
					<path id="SVGID_33_" d="M136.259,15.996c-0.151,0.151-0.417,0.265-0.795,0.265h-1.212v-0.568h1.212
						c0.113,0,0.188,0,0.265-0.075c0.036-0.039,0.075-0.114,0.075-0.19c0-0.077-0.039-0.152-0.075-0.19
						c-0.038-0.038-0.115-0.077-0.227-0.077c-0.607-0.038-1.327,0-1.327-0.833c0-0.36,0.206-0.687,0.716-0.783
						c0.06-0.008,0.123-0.014,0.194-0.014h1.252v0.645h-0.834h-0.304h-0.036c-0.114,0-0.19,0-0.267,0.039
						c-0.038,0.038-0.075,0.113-0.075,0.188c0,0.113,0.038,0.152,0.152,0.19c0.075,0.038,0.152,0.038,0.226,0.038h0.039h0.303
						c0.166,0,0.29,0.021,0.405,0.06c0.106,0.039,0.454,0.194,0.53,0.6c0.007,0.042,0.012,0.088,0.012,0.137
						C136.487,15.656,136.41,15.846,136.259,15.996"/>
				</defs>
				<clipPath id="SVGID_34_">
					<use xlink:href="#SVGID_33_"  style="overflow:visible;"/>
				</clipPath>
				<g class="st23">
					<defs>
						<rect id="SVGID_35_" x="-1093.001" y="-578.311" width="1440" height="633"/>
					</defs>
					<clipPath id="SVGID_36_">
						<use xlink:href="#SVGID_35_"  style="overflow:visible;"/>
					</clipPath>
					<rect x="129.175" y="8.532" class="st24" width="12.312" height="12.729"/>
				</g>
			</g>
			<g>
				<defs>
					<polygon id="SVGID_37_" points="115.111,10.577 115.946,10.577 115.528,9.515 					"/>
				</defs>
				<use xlink:href="#SVGID_37_"  style="overflow:visible;fill-rule:evenodd;clip-rule:evenodd;fill:#FFFFFF;"/>
				<clipPath id="SVGID_38_">
					<use xlink:href="#SVGID_37_"  style="overflow:visible;"/>
				</clipPath>
				<g class="st25">
					<defs>
						<rect id="SVGID_39_" x="-1093.001" y="-578.311" width="1440" height="633"/>
					</defs>
					<use xlink:href="#SVGID_39_"  style="overflow:visible;fill:#FFFFFF;"/>
					<clipPath id="SVGID_40_">
						<use xlink:href="#SVGID_39_"  style="overflow:visible;"/>
					</clipPath>
					<rect x="110.111" y="4.515" class="st26" width="10.834" height="11.062"/>
				</g>
			</g>
			<g>
				<defs>
					<polygon id="SVGID_41_" points="130.498,9.515 130.045,10.577 130.915,10.577 					"/>
				</defs>
				<clipPath id="SVGID_42_">
					<use xlink:href="#SVGID_41_"  style="overflow:visible;"/>
				</clipPath>
				<g class="st27">
					<defs>
						<rect id="SVGID_43_" x="-1093.001" y="-578.311" width="1440" height="633"/>
					</defs>
					<clipPath id="SVGID_44_">
						<use xlink:href="#SVGID_43_"  style="overflow:visible;"/>
					</clipPath>
					<rect x="125.045" y="4.515" class="st28" width="10.871" height="11.062"/>
				</g>
			</g>
			<g>
				<defs>
					<polygon id="SVGID_45_" points="119.545,14.139 119.545,14.633 120.949,14.633 120.949,15.162 119.545,15.162 119.545,15.732
						121.1,15.732 121.82,14.934 121.139,14.139 					"/>
				</defs>
				<clipPath id="SVGID_46_">
					<use xlink:href="#SVGID_45_"  style="overflow:visible;"/>
				</clipPath>
				<g class="st29">
					<defs>
						<rect id="SVGID_47_" x="-1093.001" y="-578.311" width="1440" height="633"/>
					</defs>
					<clipPath id="SVGID_48_">
						<use xlink:href="#SVGID_47_"  style="overflow:visible;"/>
					</clipPath>
					<rect x="114.545" y="9.139" class="st30" width="12.274" height="11.593"/>
				</g>
			</g>
			<g>
				<defs>
					<polygon id="SVGID_49_" points="123.6,16.034 123.6,13.873 122.615,14.935 					"/>
				</defs>
				<clipPath id="SVGID_50_">
					<use xlink:href="#SVGID_49_"  style="overflow:visible;"/>
				</clipPath>
				<g class="st31">
					<defs>
						<rect id="SVGID_51_" x="-1093.001" y="-578.311" width="1440" height="633"/>
					</defs>
					<clipPath id="SVGID_52_">
						<use xlink:href="#SVGID_51_"  style="overflow:visible;"/>
					</clipPath>
					<rect x="117.615" y="8.873" class="st32" width="10.985" height="12.161"/>
				</g>
			</g>
			<g>
				<defs>
					<path id="SVGID_53_" d="M125.458,14.481c-0.036-0.227-0.19-0.342-0.417-0.342h-0.795v0.682h0.834
						C125.307,14.821,125.458,14.707,125.458,14.481"/>
				</defs>
				<clipPath id="SVGID_54_">
					<use xlink:href="#SVGID_53_"  style="overflow:visible;"/>
				</clipPath>
				<g class="st33">
					<defs>
						<rect id="SVGID_55_" x="-1093.001" y="-578.311" width="1440" height="633"/>
					</defs>
					<clipPath id="SVGID_56_">
						<use xlink:href="#SVGID_55_"  style="overflow:visible;"/>
					</clipPath>
					<rect x="119.245" y="9.139" class="st34" width="11.213" height="10.682"/>
				</g>
			</g>
			<g>
				<defs>
					<path id="SVGID_57_" d="M128.111,14.745c0.077-0.038,0.114-0.151,0.114-0.264c0.038-0.153-0.038-0.229-0.114-0.267
						c-0.075-0.038-0.19-0.038-0.303-0.038h-0.759v0.606h0.759C127.921,14.783,128.035,14.783,128.111,14.745"/>
				</defs>
				<clipPath id="SVGID_58_">
					<use xlink:href="#SVGID_57_"  style="overflow:visible;"/>
				</clipPath>
				<g class="st35">
					<defs>
						<rect id="SVGID_59_" x="-1093.001" y="-578.311" width="1440" height="633"/>
					</defs>
					<clipPath id="SVGID_60_">
						<use xlink:href="#SVGID_59_"  style="overflow:visible;"/>
					</clipPath>
					<rect x="122.049" y="9.177" class="st36" width="11.186" height="10.606"/>
				</g>
			</g>
		</g>
	</g>
	<g>
		<path class="st37" d="M14.815,13.058h-1.907v-6.92c0-2.209-1.785-4.006-3.979-4.006c-2.194,0-3.978,1.797-3.978,4.006v6.92H3.044
			v-6.92C3.045,2.87,5.685,0.212,8.93,0.212c3.245,0,5.886,2.659,5.886,5.927L14.815,13.058L14.815,13.058z"/>
		<path class="st6" d="M13.975,24.788H3.885c-1.438,0-2.605-1.175-2.605-2.623V11.803h15.3v10.362
			C16.58,23.614,15.414,24.788,13.975,24.788"/>
		<path class="st5" d="M10.838,16.909c0-1.061-0.854-1.922-1.909-1.922c-1.054,0-1.909,0.861-1.909,1.922
			c0,0.767,0.449,1.424,1.095,1.733v2.814h1.628v-2.815C10.389,18.333,10.838,17.676,10.838,16.909z"/>
		<path class="st5" d="M48.67,17.122c-0.04-0.04-0.08-0.06-0.13-0.06h-0.55c-0.05,0-0.09,0.02-0.13,0.06
			c-0.03,0.03-0.05,0.08-0.05,0.13v2.83c-0.05-0.01-0.15-0.05-0.31-0.11c-0.16-0.07-0.36-0.1-0.61-0.1c-0.26,0-0.51,0.05-0.74,0.16
			c-0.23,0.1-0.42,0.25-0.59,0.43c-0.17,0.19-0.3,0.4-0.4,0.65c-0.09,0.24-0.14,0.51-0.14,0.79c0,0.28,0.05,0.54,0.14,0.79
			c0.09,0.25,0.22,0.46,0.37,0.65c0.16,0.18,0.35,0.32,0.57,0.43c0.21,0.11,0.45,0.16,0.7,0.16c0.18,0,0.35-0.03,0.5-0.08
			c0.15-0.06,0.28-0.12,0.38-0.19c0.12-0.08,0.23-0.17,0.33-0.27l0.07,0.28c0.04,0.11,0.09,0.16,0.18,0.16h0.28
			c0.05,0,0.09-0.01,0.13-0.05c0.03-0.04,0.05-0.08,0.05-0.13v-6.4C48.72,17.202,48.7,17.152,48.67,17.122z M47.82,22.522
			c-0.02,0.02-0.04,0.07-0.08,0.13c-0.04,0.07-0.1,0.13-0.17,0.2c-0.08,0.06-0.17,0.12-0.28,0.17c-0.1,0.05-0.23,0.08-0.38,0.08
			c-0.15,0-0.29-0.03-0.41-0.1c-0.12-0.06-0.23-0.15-0.32-0.26c-0.09-0.11-0.16-0.24-0.2-0.38c-0.05-0.15-0.07-0.3-0.07-0.46
			c0-0.16,0.02-0.32,0.08-0.46c0.05-0.15,0.12-0.27,0.22-0.38c0.1-0.11,0.21-0.2,0.34-0.26c0.14-0.06,0.28-0.09,0.44-0.09
			c0.13,0,0.24,0.01,0.34,0.03c0.1,0.03,0.19,0.05,0.26,0.09c0.08,0.03,0.16,0.07,0.23,0.11V22.522z"/>
		<path class="st5" d="M44.25,20.942c-0.09-0.22-0.21-0.41-0.37-0.56c-0.16-0.16-0.34-0.29-0.56-0.38
			c-0.21-0.09-0.44-0.13-0.69-0.13c-0.28,0-0.54,0.05-0.78,0.16c-0.23,0.11-0.43,0.26-0.6,0.44c-0.16,0.19-0.29,0.4-0.38,0.65
			c-0.09,0.25-0.14,0.51-0.14,0.78c0,0.28,0.05,0.54,0.14,0.79c0.09,0.25,0.22,0.46,0.38,0.65c0.17,0.18,0.37,0.32,0.61,0.43
			c0.24,0.11,0.5,0.16,0.78,0.16c0.33,0,0.61-0.05,0.84-0.15c0.24-0.1,0.43-0.21,0.57-0.33c0.06-0.06,0.08-0.1,0.08-0.14
			c-0.01-0.04-0.03-0.08-0.06-0.11l-0.27-0.37c-0.03-0.05-0.07-0.07-0.11-0.06c-0.04,0.01-0.09,0.03-0.14,0.07
			c-0.1,0.06-0.22,0.12-0.37,0.19c-0.15,0.06-0.31,0.09-0.48,0.09c-0.15,0-0.29-0.03-0.43-0.09c-0.13-0.06-0.25-0.13-0.34-0.23
			c-0.1-0.1-0.17-0.21-0.23-0.34c-0.06-0.12-0.09-0.25-0.09-0.38h2.58c0.1,0,0.16-0.05,0.17-0.16c0.01-0.03,0.02-0.08,0.02-0.13
			v-0.13C44.38,21.402,44.34,21.162,44.25,20.942z M41.65,21.472c0.04-0.24,0.14-0.45,0.32-0.61c0.18-0.16,0.39-0.25,0.65-0.25
			c0.12,0,0.23,0.03,0.33,0.07c0.11,0.05,0.2,0.11,0.28,0.19c0.08,0.08,0.14,0.17,0.19,0.27c0.05,0.11,0.07,0.22,0.08,0.33H41.65z"
			/>
		<path class="st5" d="M37.811,20.151c0-0.052,0.017-0.095,0.052-0.131c0.035-0.035,0.078-0.053,0.128-0.053h0.276
			c0.082,0,0.136,0.045,0.162,0.135l0.105,0.329c0.019-0.026,0.054-0.069,0.105-0.131c0.051-0.061,0.122-0.124,0.214-0.189
			c0.092-0.064,0.205-0.121,0.338-0.169c0.133-0.048,0.285-0.073,0.457-0.073c0.089,0,0.181,0.006,0.276,0.019
			c0.095,0.013,0.178,0.034,0.247,0.063c0.07,0.029,0.122,0.066,0.157,0.111c0.035,0.045,0.04,0.1,0.014,0.164l-0.228,0.474
			c-0.025,0.052-0.059,0.084-0.1,0.097c-0.041,0.013-0.084,0.01-0.128-0.01c-0.032-0.013-0.078-0.027-0.138-0.044
			c-0.06-0.016-0.122-0.024-0.185-0.024c-0.14,0-0.26,0.021-0.361,0.063c-0.101,0.042-0.187,0.09-0.257,0.145
			c-0.07,0.055-0.125,0.108-0.166,0.16c-0.041,0.052-0.065,0.087-0.071,0.106v2.456c0,0.084-0.024,0.135-0.071,0.155
			c-0.048,0.019-0.109,0.029-0.185,0.029h-0.457c-0.051,0-0.094-0.018-0.128-0.053c-0.035-0.035-0.052-0.079-0.052-0.131V20.151z"/>
		<path class="st5" d="M33.065,20.151c0-0.052,0.017-0.095,0.052-0.131c0.035-0.035,0.078-0.053,0.128-0.053h0.542
			c0.051,0,0.094,0.018,0.128,0.053c0.035,0.035,0.052,0.079,0.052,0.131v1.983c0,0.316,0.07,0.556,0.209,0.72
			c0.14,0.164,0.33,0.247,0.571,0.247c0.14,0,0.266-0.026,0.38-0.077c0.114-0.052,0.211-0.111,0.29-0.179
			c0.079-0.068,0.143-0.137,0.19-0.208c0.048-0.071,0.075-0.129,0.081-0.174v-2.311c0-0.077,0.017-0.127,0.052-0.15
			c0.035-0.023,0.087-0.034,0.157-0.034h0.495c0.051,0,0.094,0.018,0.128,0.053c0.035,0.035,0.052,0.079,0.052,0.131v3.501
			c0,0.052-0.017,0.095-0.052,0.131c-0.035,0.035-0.078,0.053-0.128,0.053h-0.266c-0.082,0-0.14-0.052-0.171-0.155l-0.095-0.28
			c-0.019,0.019-0.06,0.058-0.124,0.116c-0.063,0.058-0.146,0.118-0.247,0.179c-0.101,0.061-0.227,0.116-0.376,0.164
			s-0.319,0.073-0.509,0.073c-0.285,0-0.526-0.048-0.723-0.145c-0.197-0.097-0.355-0.227-0.476-0.392
			c-0.12-0.164-0.208-0.358-0.262-0.58c-0.054-0.222-0.081-0.459-0.081-0.711V20.151z"/>
		<path class="st5" d="M28.708,21.911c0-0.284,0.054-0.55,0.162-0.798c0.108-0.248,0.254-0.464,0.438-0.648
			c0.184-0.184,0.396-0.329,0.637-0.435s0.495-0.16,0.761-0.16c0.292,0,0.55,0.058,0.775,0.174s0.426,0.287,0.604,0.513
			c0.032,0.045,0.044,0.093,0.038,0.145c-0.006,0.052-0.032,0.093-0.076,0.126l-0.314,0.29c-0.057,0.052-0.105,0.066-0.143,0.044
			c-0.038-0.023-0.076-0.05-0.114-0.082c-0.089-0.097-0.198-0.182-0.328-0.256c-0.13-0.074-0.274-0.111-0.433-0.111
			c-0.152,0-0.296,0.031-0.433,0.092c-0.136,0.061-0.254,0.147-0.352,0.256c-0.098,0.11-0.176,0.237-0.233,0.382
			c-0.057,0.145-0.086,0.298-0.086,0.459c0,0.168,0.029,0.324,0.086,0.469c0.057,0.145,0.135,0.272,0.233,0.382
			c0.098,0.11,0.214,0.195,0.347,0.256c0.133,0.061,0.276,0.092,0.428,0.092c0.12,0,0.225-0.015,0.314-0.044
			c0.089-0.029,0.166-0.064,0.233-0.106c0.067-0.042,0.127-0.089,0.181-0.14s0.106-0.103,0.157-0.155
			c0.082-0.084,0.168-0.09,0.257-0.019l0.257,0.213c0.108,0.09,0.13,0.181,0.067,0.271c-0.152,0.245-0.354,0.442-0.604,0.59
			c-0.25,0.148-0.541,0.222-0.87,0.222c-0.266,0-0.52-0.052-0.761-0.155c-0.241-0.103-0.452-0.243-0.633-0.421
			c-0.181-0.177-0.325-0.39-0.433-0.638C28.762,22.47,28.708,22.201,28.708,21.911z"/>
		<path class="st5" d="M27.95,20.942c-0.09-0.22-0.22-0.41-0.37-0.56c-0.16-0.16-0.35-0.29-0.56-0.38s-0.44-0.13-0.69-0.13
			c-0.29,0-0.55,0.05-0.78,0.16c-0.23,0.11-0.43,0.26-0.6,0.44c-0.16,0.19-0.29,0.4-0.38,0.65c-0.1,0.25-0.14,0.51-0.14,0.78
			c0,0.28,0.04,0.54,0.14,0.79c0.09,0.25,0.22,0.46,0.38,0.65c0.17,0.18,0.37,0.32,0.6,0.43c0.24,0.11,0.5,0.16,0.79,0.16
			c0.32,0,0.6-0.05,0.84-0.15c0.24-0.1,0.43-0.21,0.57-0.33c0.05-0.06,0.08-0.1,0.07-0.14c0-0.04-0.02-0.08-0.05-0.11l-0.27-0.37
			c-0.04-0.05-0.08-0.07-0.11-0.06c-0.04,0.01-0.09,0.03-0.15,0.07c-0.09,0.06-0.21,0.12-0.36,0.19c-0.15,0.06-0.31,0.09-0.48,0.09
			c-0.16,0-0.3-0.03-0.43-0.09s-0.25-0.13-0.34-0.23c-0.1-0.1-0.18-0.21-0.23-0.34c-0.06-0.12-0.09-0.25-0.1-0.38h2.59
			c0.1,0,0.16-0.05,0.17-0.16c0.01-0.03,0.01-0.08,0.02-0.13v-0.13C28.08,21.402,28.04,21.162,27.95,20.942z M25.35,21.472
			c0.03-0.24,0.14-0.45,0.31-0.61c0.18-0.16,0.4-0.25,0.66-0.25c0.11,0,0.22,0.03,0.33,0.07c0.1,0.05,0.2,0.11,0.27,0.19
			c0.08,0.08,0.15,0.17,0.19,0.27c0.05,0.11,0.08,0.22,0.09,0.33H25.35z"/>
		<path class="st5" d="M19.529,23.168c-0.044-0.039-0.078-0.079-0.1-0.121c-0.022-0.042-0.008-0.105,0.043-0.189
			c0.044-0.064,0.086-0.131,0.124-0.198s0.079-0.134,0.124-0.198c0.044-0.064,0.097-0.105,0.157-0.121
			c0.06-0.016,0.116-0.002,0.166,0.044c0.013,0.013,0.065,0.055,0.157,0.126c0.092,0.071,0.209,0.147,0.352,0.227
			c0.143,0.081,0.301,0.153,0.476,0.218c0.174,0.064,0.354,0.097,0.537,0.097c0.33,0,0.591-0.089,0.785-0.266
			c0.193-0.177,0.29-0.388,0.29-0.633c0-0.29-0.12-0.537-0.361-0.74c-0.241-0.203-0.599-0.405-1.075-0.604
			c-0.241-0.103-0.468-0.216-0.68-0.338c-0.212-0.122-0.396-0.263-0.552-0.421c-0.155-0.158-0.277-0.342-0.366-0.551
			s-0.133-0.456-0.133-0.74c0-0.187,0.038-0.385,0.114-0.595c0.076-0.21,0.197-0.403,0.361-0.58c0.165-0.177,0.379-0.324,0.642-0.44
			c0.263-0.116,0.585-0.174,0.965-0.174c0.235,0,0.455,0.026,0.661,0.077c0.206,0.052,0.387,0.111,0.542,0.179
			c0.155,0.068,0.281,0.132,0.376,0.193c0.095,0.061,0.155,0.102,0.181,0.121c0.038,0.026,0.07,0.069,0.095,0.131
			c0.025,0.061,0.013,0.127-0.038,0.198c-0.038,0.058-0.078,0.119-0.119,0.184s-0.081,0.126-0.119,0.184
			c-0.038,0.064-0.086,0.108-0.143,0.131s-0.12,0.011-0.19-0.034c-0.019-0.006-0.07-0.035-0.152-0.087
			c-0.082-0.052-0.185-0.106-0.309-0.164c-0.124-0.058-0.257-0.111-0.4-0.16c-0.143-0.048-0.284-0.073-0.423-0.073
			c-0.203,0-0.373,0.029-0.509,0.087c-0.136,0.058-0.246,0.131-0.328,0.218c-0.082,0.087-0.143,0.181-0.181,0.28
			c-0.038,0.1-0.057,0.195-0.057,0.285c0,0.277,0.101,0.508,0.304,0.691c0.203,0.184,0.504,0.359,0.904,0.527
			c0.273,0.116,0.534,0.239,0.785,0.367c0.25,0.129,0.468,0.277,0.652,0.445c0.184,0.168,0.331,0.361,0.442,0.58
			c0.111,0.219,0.166,0.477,0.166,0.774c0,0.251-0.052,0.488-0.157,0.711c-0.105,0.222-0.25,0.416-0.438,0.58
			c-0.187,0.164-0.411,0.295-0.671,0.392c-0.26,0.097-0.545,0.145-0.856,0.145c-0.292,0-0.555-0.032-0.789-0.097
			c-0.235-0.064-0.439-0.14-0.614-0.227c-0.174-0.087-0.315-0.172-0.423-0.256C19.64,23.268,19.567,23.207,19.529,23.168z"/>
		<path class="st5" d="M30.116,8.864c0-0.052,0.017-0.095,0.052-0.131s0.078-0.053,0.128-0.053h0.628
			c0.051,0,0.094,0.018,0.128,0.053c0.035,0.035,0.052,0.079,0.052,0.131v5.686h2.578c0.051,0,0.094,0.018,0.128,0.053
			c0.035,0.035,0.052,0.079,0.052,0.131v0.532c0,0.052-0.017,0.095-0.052,0.131c-0.035,0.035-0.078,0.053-0.128,0.053h-3.386
			c-0.051,0-0.094-0.018-0.128-0.053s-0.052-0.079-0.052-0.131V8.864z"/>
		<path class="st5" d="M24.637,14.782c-0.044-0.039-0.078-0.079-0.1-0.121c-0.022-0.042-0.008-0.105,0.043-0.189
			c0.044-0.064,0.086-0.131,0.124-0.198c0.038-0.068,0.079-0.134,0.124-0.198c0.044-0.064,0.097-0.105,0.157-0.121
			c0.06-0.016,0.116-0.002,0.166,0.044c0.013,0.013,0.065,0.055,0.157,0.126s0.209,0.147,0.352,0.227
			c0.143,0.081,0.301,0.153,0.476,0.218c0.174,0.064,0.354,0.097,0.537,0.097c0.33,0,0.591-0.089,0.785-0.266
			c0.193-0.177,0.29-0.388,0.29-0.633c0-0.29-0.12-0.537-0.361-0.74c-0.241-0.203-0.599-0.405-1.075-0.604
			c-0.241-0.103-0.468-0.216-0.68-0.338c-0.212-0.123-0.396-0.263-0.552-0.421c-0.155-0.158-0.277-0.342-0.366-0.551
			c-0.089-0.21-0.133-0.456-0.133-0.74c0-0.187,0.038-0.385,0.114-0.595c0.076-0.21,0.197-0.403,0.361-0.58
			c0.165-0.177,0.379-0.324,0.642-0.44c0.263-0.116,0.585-0.174,0.965-0.174c0.235,0,0.455,0.026,0.661,0.077
			c0.206,0.052,0.387,0.111,0.542,0.179c0.155,0.068,0.281,0.132,0.376,0.193c0.095,0.061,0.155,0.102,0.181,0.121
			c0.038,0.026,0.07,0.069,0.095,0.131c0.025,0.061,0.013,0.127-0.038,0.198c-0.038,0.058-0.078,0.119-0.119,0.184
			C28.32,9.731,28.28,9.792,28.242,9.85c-0.038,0.064-0.086,0.108-0.143,0.131c-0.057,0.023-0.12,0.011-0.19-0.034
			c-0.019-0.006-0.07-0.035-0.152-0.087c-0.082-0.052-0.185-0.106-0.309-0.164c-0.124-0.058-0.257-0.111-0.399-0.16
			c-0.143-0.048-0.284-0.073-0.423-0.073c-0.203,0-0.373,0.029-0.509,0.087c-0.136,0.058-0.246,0.131-0.328,0.218
			c-0.082,0.087-0.143,0.181-0.181,0.28c-0.038,0.1-0.057,0.195-0.057,0.285c0,0.277,0.101,0.508,0.304,0.691
			c0.203,0.184,0.504,0.359,0.904,0.527c0.273,0.116,0.534,0.239,0.785,0.367c0.25,0.129,0.468,0.277,0.652,0.445
			c0.184,0.168,0.331,0.361,0.442,0.58c0.111,0.219,0.166,0.477,0.166,0.774c0,0.251-0.052,0.488-0.157,0.711
			c-0.105,0.222-0.25,0.416-0.438,0.58c-0.187,0.164-0.411,0.295-0.671,0.392c-0.26,0.097-0.545,0.145-0.856,0.145
			c-0.292,0-0.555-0.032-0.789-0.097c-0.235-0.064-0.439-0.14-0.614-0.227c-0.174-0.087-0.315-0.172-0.423-0.256
			C24.748,14.882,24.675,14.821,24.637,14.782z"/>
		<path class="st5" d="M19.529,14.782c-0.044-0.039-0.078-0.079-0.1-0.121c-0.022-0.042-0.008-0.105,0.043-0.189
			c0.044-0.064,0.086-0.131,0.124-0.198c0.038-0.068,0.079-0.134,0.124-0.198c0.044-0.064,0.097-0.105,0.157-0.121
			c0.06-0.016,0.116-0.002,0.166,0.044c0.013,0.013,0.065,0.055,0.157,0.126c0.092,0.071,0.209,0.147,0.352,0.227
			c0.143,0.081,0.301,0.153,0.476,0.218c0.174,0.064,0.354,0.097,0.537,0.097c0.33,0,0.591-0.089,0.785-0.266
			c0.193-0.177,0.29-0.388,0.29-0.633c0-0.29-0.12-0.537-0.361-0.74c-0.241-0.203-0.599-0.405-1.075-0.604
			c-0.241-0.103-0.468-0.216-0.68-0.338c-0.212-0.123-0.396-0.263-0.552-0.421c-0.155-0.158-0.277-0.342-0.366-0.551
			c-0.089-0.21-0.133-0.456-0.133-0.74c0-0.187,0.038-0.385,0.114-0.595c0.076-0.21,0.197-0.403,0.361-0.58
			c0.165-0.177,0.379-0.324,0.642-0.44c0.263-0.116,0.585-0.174,0.965-0.174c0.235,0,0.455,0.026,0.661,0.077
			c0.206,0.052,0.387,0.111,0.542,0.179c0.155,0.068,0.281,0.132,0.376,0.193c0.095,0.061,0.155,0.102,0.181,0.121
			c0.038,0.026,0.07,0.069,0.095,0.131c0.025,0.061,0.013,0.127-0.038,0.198c-0.038,0.058-0.078,0.119-0.119,0.184
			c-0.041,0.064-0.081,0.126-0.119,0.184c-0.038,0.064-0.086,0.108-0.143,0.131c-0.057,0.023-0.12,0.011-0.19-0.034
			c-0.019-0.006-0.07-0.035-0.152-0.087c-0.082-0.052-0.185-0.106-0.309-0.164c-0.124-0.058-0.257-0.111-0.4-0.16
			c-0.143-0.048-0.284-0.073-0.423-0.073c-0.203,0-0.373,0.029-0.509,0.087c-0.136,0.058-0.246,0.131-0.328,0.218
			c-0.082,0.087-0.143,0.181-0.181,0.28c-0.038,0.1-0.057,0.195-0.057,0.285c0,0.277,0.101,0.508,0.304,0.691
			c0.203,0.184,0.504,0.359,0.904,0.527c0.273,0.116,0.534,0.239,0.785,0.367c0.25,0.129,0.468,0.277,0.652,0.445
			c0.184,0.168,0.331,0.361,0.442,0.58c0.111,0.219,0.166,0.477,0.166,0.774c0,0.251-0.052,0.488-0.157,0.711
			s-0.25,0.416-0.438,0.58c-0.187,0.164-0.411,0.295-0.671,0.392c-0.26,0.097-0.545,0.145-0.856,0.145
			c-0.292,0-0.555-0.032-0.789-0.097c-0.235-0.064-0.439-0.14-0.614-0.227c-0.174-0.087-0.315-0.172-0.423-0.256
			C19.64,14.882,19.567,14.821,19.529,14.782z"/>
	</g>
	<g>
		<path class="st38" d="M190.531,12.5c0,5.127-4.142,9.319-9.319,9.319c-5.127,0-9.319-4.191-9.319-9.319
			c0-5.128,4.142-9.319,9.27-9.319C186.39,3.181,190.531,7.372,190.531,12.5"/>
		<path class="st6" d="M168.689,3.181c-5.079,0.049-9.22,4.191-9.22,9.319c0,5.127,4.142,9.319,9.319,9.319
			c2.416,0,4.586-0.937,6.262-2.416c0.345-0.296,0.641-0.641,0.937-0.986h-1.923c-0.247-0.296-0.493-0.641-0.69-0.937h3.304
			c0.197-0.296,0.394-0.641,0.542-0.986h-4.388c-0.148-0.296-0.296-0.641-0.395-0.986h5.128c0.296-0.937,0.493-1.923,0.493-2.959
			c0-0.69-0.099-1.332-0.198-1.972h-5.719c0.049-0.345,0.148-0.641,0.247-0.986h5.127c-0.098-0.345-0.246-0.691-0.394-0.986h-4.339
			c0.148-0.345,0.345-0.641,0.542-0.986h3.303c-0.197-0.345-0.443-0.69-0.739-0.986h-1.824c0.296-0.345,0.592-0.641,0.936-0.937
			c-1.627-1.528-3.845-2.514-6.262-2.514H168.689z"/>
		<path class="st5" d="M172.091,14.867l0.148-0.838c-0.05,0-0.148,0.05-0.246,0.05c-0.345,0-0.395-0.198-0.345-0.296l0.296-1.726
			h0.542l0.148-0.937h-0.493l0.098-0.592h-0.986c0,0-0.592,3.254-0.592,3.648c0,0.592,0.345,0.839,0.789,0.839
			C171.746,15.015,171.993,14.916,172.091,14.867"/>
		<path class="st5" d="M172.436,13.289c0,1.381,0.937,1.726,1.726,1.726c0.74,0,1.035-0.148,1.035-0.148l0.197-0.937
			c0,0-0.542,0.246-1.035,0.246c-1.085,0-0.887-0.789-0.887-0.789h2.021c0,0,0.148-0.641,0.148-0.887c0-0.641-0.345-1.43-1.43-1.43
			C173.176,10.971,172.436,12.056,172.436,13.289"/>
		<path class="st5" d="M180.424,14.867l0.197-1.085c0,0-0.493,0.246-0.838,0.246c-0.691,0-0.987-0.543-0.987-1.134
			c0-1.183,0.592-1.824,1.282-1.824c0.493,0,0.887,0.296,0.887,0.296l0.148-1.035c0,0-0.592-0.246-1.134-0.246
			c-1.134,0-2.268,0.986-2.268,2.859c0,1.233,0.591,2.071,1.775,2.071C179.881,15.015,180.424,14.867,180.424,14.867"/>
		<path class="st5" d="M166.668,10.972c-0.691,0-1.184,0.197-1.184,0.197l-0.148,0.838c0,0,0.444-0.197,1.085-0.197
			c0.345,0,0.642,0.05,0.642,0.345c0,0.197-0.05,0.247-0.05,0.247h-0.444c-0.838,0-1.775,0.345-1.775,1.479
			c0,0.887,0.591,1.085,0.936,1.085c0.69,0,0.986-0.444,1.035-0.444l-0.049,0.394h0.888l0.393-2.711
			C167.998,11.021,167.013,10.972,166.668,10.972"/>
		<path class="st6" d="M166.865,13.19c0,0.148-0.099,0.937-0.691,0.937c-0.296,0-0.395-0.247-0.395-0.394
			c0-0.247,0.148-0.592,0.888-0.592C166.815,13.19,166.865,13.19,166.865,13.19"/>
		<path class="st5" d="M168.935,14.965c0.247,0,1.479,0.05,1.479-1.282c0-1.232-1.183-0.986-1.183-1.479
			c0-0.247,0.197-0.345,0.542-0.345c0.148,0,0.69,0.05,0.69,0.05l0.148-0.888c0,0-0.345-0.099-0.937-0.099
			c-0.74,0-1.479,0.296-1.479,1.282c0,1.134,1.233,1.035,1.233,1.479c0,0.296-0.345,0.345-0.591,0.345
			c-0.444,0-0.888-0.148-0.888-0.148l-0.147,0.887C167.851,14.867,168.098,14.965,168.935,14.965"/>
		<path class="st5" d="M188.608,10.182l-0.197,1.331c0,0-0.395-0.493-0.936-0.493c-0.888,0-1.677,1.085-1.677,2.366
			c0,0.789,0.395,1.628,1.233,1.628c0.592,0,0.937-0.395,0.937-0.395l-0.05,0.345h0.986l0.74-4.733L188.608,10.182z"/>
		<path class="st38" d="M188.165,12.796c0,0.543-0.247,1.233-0.789,1.233c-0.345,0-0.542-0.296-0.542-0.79
			c0-0.788,0.345-1.281,0.788-1.281C187.968,11.958,188.165,12.204,188.165,12.796"/>
		<polygon class="st5" points="161.293,14.916 161.885,11.366 161.984,14.916 162.674,14.916 163.955,11.366 163.413,14.916
			164.449,14.916 165.237,10.182 163.611,10.182 162.624,13.092 162.575,10.182 161.145,10.182 160.356,14.916 		"/>
		<path class="st5" d="M176.577,14.916c0.296-1.627,0.345-2.958,1.036-2.711c0.098-0.641,0.246-0.888,0.345-1.135h-0.197
			c-0.444,0-0.789,0.592-0.789,0.592l0.098-0.542h-0.936l-0.641,3.846h1.085V14.916z"/>
		<path class="st5" d="M182.692,10.972c-0.691,0-1.183,0.197-1.183,0.197l-0.148,0.838c0,0,0.444-0.197,1.084-0.197
			c0.345,0,0.641,0.05,0.641,0.345c0,0.197-0.049,0.247-0.049,0.247h-0.444c-0.839,0-1.775,0.345-1.775,1.479
			c0,0.887,0.591,1.085,0.936,1.085c0.69,0,0.986-0.444,1.035-0.444l-0.049,0.394h0.888l0.394-2.711
			C184.072,11.021,183.037,10.972,182.692,10.972"/>
		<path class="st38" d="M182.939,13.19c0,0.148-0.099,0.937-0.691,0.937c-0.296,0-0.395-0.247-0.395-0.394
			c0-0.247,0.147-0.592,0.887-0.592C182.889,13.19,182.889,13.19,182.939,13.19"/>
		<path class="st5" d="M184.861,14.916c0.296-1.627,0.345-2.958,1.035-2.711c0.098-0.641,0.246-0.888,0.345-1.135h-0.197
			c-0.444,0-0.789,0.592-0.789,0.592l0.098-0.542h-0.937l-0.641,3.846h1.085V14.916z"/>
		<path class="st5" d="M174.162,11.859c0.543,0,0.444,0.641,0.444,0.69h-1.085C173.521,12.5,173.619,11.859,174.162,11.859"/>
		<path class="st6" d="M174.188,11.814c0.487,0,0.399,0.576,0.399,0.62h-0.974C173.612,12.39,173.701,11.814,174.188,11.814"/>
	</g>
	<g>
		<path class="st6" d="M88.396,2.946H61.605c-0.693,0-1.256,0.607-1.256,1.355v16.398c0,0.749,0.563,1.355,1.256,1.355h26.791
			c0.693,0,1.255-0.607,1.255-1.355V4.301C89.651,3.553,89.09,2.946,88.396,2.946L88.396,2.946z"/>
		<path class="st6" d="M88.396,2.946H61.605c-0.693,0-1.256,0.607-1.256,1.355v16.398c0,0.749,0.563,1.355,1.256,1.355h26.791
			c0.693,0,1.255-0.607,1.255-1.355V4.301C89.651,3.553,89.09,2.946,88.396,2.946L88.396,2.946z"/>
		<rect x="62.42" y="5.182" class="st5" width="25.159" height="14.636"/>
		<path class="st6" d="M84.067,9.204c-0.02-0.09-0.1-0.16-0.19-0.16h-1.2c-0.48,0-0.75,0.17-0.92,0.57l-2.48,6.07
			c-0.02,0.06-0.02,0.14,0.02,0.2c0.04,0.06,0.1,0.09,0.16,0.09h1.41c0.08,0,0.15-0.05,0.18-0.13c0.17-0.49,0.28-0.81,0.32-0.91
			h2.24c0.04,0.19,0.14,0.68,0.18,0.88c0.02,0.09,0.1,0.16,0.2,0.16h1.22c0.06,0,0.12-0.03,0.15-0.08c0.04-0.05,0.05-0.11,0.04-0.17
			L84.067,9.204z M81.867,13.514l0.94-2.6l0.11,0.6l0.41,2H81.867z"/>
		<path class="st6" d="M74.53,15.658c0.462,0.175,1.107,0.284,1.726,0.291h0.002c1.774,0,2.928-0.898,2.94-2.286
			c0.007-0.763-0.444-1.34-1.414-1.814c-0.593-0.311-0.957-0.518-0.954-0.835c0-0.284,0.333-0.572,0.972-0.572
			c0.015,0,0.033,0,0.051,0c0.53,0,0.905,0.13,1.141,0.227c0.055,0.023,0.116,0.017,0.167-0.013
			c0.051-0.032,0.086-0.086,0.097-0.148l0.158-1.006c0.017-0.104-0.04-0.205-0.133-0.237c-0.292-0.1-0.762-0.22-1.352-0.22
			c-1.672,0-2.846,0.908-2.856,2.207c-0.01,0.962,0.84,1.498,1.48,1.818c0.657,0.327,0.878,0.536,0.875,0.83
			c-0.004,0.449-0.527,0.653-1.009,0.653c-0.689,0-1.059-0.112-1.583-0.347c-0.055-0.025-0.117-0.021-0.169,0.01
			c-0.052,0.031-0.088,0.086-0.098,0.149l-0.168,1.059C74.386,15.525,74.44,15.625,74.53,15.658"/>
		<path class="st6" d="M64.727,9.433c1.121,0.435,2.038,1.127,2.652,1.998c0.038,0.054,0.096,0.083,0.156,0.083
			c0.027,0,0.055-0.006,0.081-0.019c0.084-0.041,0.129-0.139,0.11-0.236l-0.326-1.665c-0.001-0.004-0.002-0.007-0.003-0.011
			c-0.117-0.475-0.488-0.546-0.757-0.558h-0.008l-1.839-0.004c-0.095,0-0.177,0.074-0.193,0.175
			C64.584,9.299,64.638,9.398,64.727,9.433"/>
		<path class="st6" d="M71.515,15.899c0.037,0.047,0.092,0.075,0.15,0.075h1.355c0.095,0,0.176-0.074,0.192-0.176l1.029-6.516
			c0.01-0.062-0.006-0.124-0.043-0.172c-0.037-0.048-0.091-0.075-0.149-0.075h-1.355c-0.096,0-0.177,0.074-0.193,0.176l-1.029,6.517
			C71.462,15.788,71.477,15.851,71.515,15.899"/>
		<path class="st6" d="M66.102,10.536c-0.067-0.055-0.16-0.059-0.23-0.007c-0.07,0.052-0.101,0.146-0.078,0.234l1.371,5.054
			c0.024,0.09,0.101,0.152,0.188,0.152h0l1.578-0.003c0.078,0,0.148-0.051,0.18-0.128l2.59-6.503c0.026-0.065,0.02-0.141-0.016-0.2
			c-0.036-0.06-0.098-0.095-0.163-0.095h0l-1.425,0.001c-0.081,0-0.153,0.053-0.182,0.134l-1.667,4.598l-0.18-0.701
			c-0.002-0.009-0.005-0.018-0.009-0.027C67.796,12.386,67.089,11.355,66.102,10.536"/>
	</g>
</g>
</svg>
